<svg width="180" height="180" viewBox="0 0 180 180" fill="none" xmlns="http://www.w3.org/2000/svg">
<path d="M30.5607 85.0963L27.299 79.4389L24.0356 85.0963L27.299 90.5719L30.5607 85.0963Z" fill="#D4AF37"/>
<path d="M67.5309 71.5922L64.4496 65.9333L61.1879 71.5922L64.4496 77.0663L67.5309 71.5922Z" fill="#D4AF37"/>
<path d="M156.153 85.0963L152.891 79.4389L149.629 85.0963L152.891 90.5719L156.153 85.0963Z" fill="#D4AF37"/>
<path d="M119 71.5922L115.738 65.9333L112.657 71.5922L115.738 77.0663L119 71.5922Z" fill="#D4AF37"/>
<mask id="mask0_2010_171" style="mask-type:luminance" maskUnits="userSpaceOnUse" x="7" y="25" width="167" height="124">
<path d="M7 25H173.193V148.682H7V25Z" fill="white"/>
</mask>
<g mask="url(#mask0_2010_171)">
<path d="M148.179 108.458L136.398 69.2196L114.108 98.6019L93.0851 56.626L99.4281 43.8507L90.1859 25.2346L80.7617 43.8507L87.1047 56.626L66.0822 98.4201L44.1524 69.2196L32.3721 108.639L7 79.2571L24.3982 134.739L24.5802 135.104V148.609H155.61V135.104L155.972 134.192L173.188 79.2571L148.179 108.458ZM149.447 132.001H135.13L145.823 119.591L149.447 132.001ZM134.224 81.0813L144.011 113.385L129.875 129.812L117.007 104.078L134.224 81.0813ZM124.8 132.001H95.8038L113.202 109.005L124.8 132.001ZM86.7421 43.8507L90.0039 37.463L93.2656 43.8507L90.0039 50.4201L86.7421 43.8507ZM90.1859 62.6485L110.483 103.347L90.1859 130.358L69.887 103.165L90.1859 62.6485ZM34.5476 119.772L45.0581 132.001H30.9232L34.5476 119.772ZM84.5665 132.001H55.3896L66.9879 108.639L84.5665 132.001ZM46.3279 81.0813L63.3635 103.712L50.4954 129.812L36.5411 113.568L46.3279 81.0813ZM20.0486 102.982L30.3786 114.845L27.1168 125.431L20.0486 102.982ZM150.172 143.134H30.016V137.476H150.172V143.134ZM153.071 125.066L149.992 114.664L160.14 102.982L153.071 125.066Z" fill="#D4AF37"/>
</g>
</svg>
